<svg xmlns="http://www.w3.org/2000/svg" viewBox="0 0 711 689">
<g transform="translate(0.000000,689.000000) scale(0.100000,-0.100000)">
<path d="M3476 6593 c-97 -115 -243 -296 -285 -355 -19 -26 -38 -45 -44 -41
-6 3 -7 1 -3 -6 5 -7 -4 -27 -19 -46 -14 -19 -73 -110 -131 -202 -114 -184
-246 -443 -316 -623 -49 -124 -101 -296 -96 -312 2 -6 17 36 33 93 91 329 331
789 600 1148 110 146 296 373 330 401 15 13 19 12 31 -5 15 -21 110 -129 131
-151 18 -18 16 -24 -4 -18 -15 5 -15 4 -3 -5 8 -5 11 -13 7 -17 -4 -4 -17 1
-28 12 -16 14 -23 16 -26 6 -3 -6 -9 -10 -14 -6 -5 3 -9 -2 -9 -10 0 -9 -9
-16 -20 -16 -15 0 -20 -7 -21 -27 -1 -16 -2 -55 -4 -88 -1 -33 -5 -222 -9
-420 l-6 -360 37 -25 c65 -44 248 -196 341 -284 49 -47 92 -82 96 -78 4 4 6 2
4 -4 -4 -15 133 -165 145 -157 6 3 7 1 3 -6 -6 -9 57 -97 94 -131 3 -3 13 -18
23 -33 10 -15 22 -25 27 -22 6 3 7 0 4 -8 -3 -8 8 -27 24 -43 16 -16 29 -33
30 -39 1 -5 7 -10 14 -10 6 0 13 -7 15 -15 4 -13 3 -13 -6 0 -6 9 -11 10 -11
3 0 -6 7 -18 15 -27 8 -8 15 -17 15 -20 0 -9 63 -110 73 -117 5 -3 8 -9 8 -13
-2 -17 0 -20 8 -8 6 9 8 5 8 -15 0 -15 7 -46 16 -68 l15 -40 5 30 c2 17 3 -13
1 -65 -3 -93 -3 -94 6 -30 13 91 13 370 0 460 -26 184 -91 421 -162 585 -62
143 -71 163 -130 280 -105 209 -216 389 -367 595 -125 171 -194 259 -258 329
-37 41 -74 82 -81 93 -7 10 -17 18 -22 18 -5 0 -43 -39 -84 -87z m324 -214
c13 -18 16 -29 9 -40 -8 -11 -9 -10 -7 6 2 14 -3 20 -17 20 -15 0 -19 6 -18
23 3 24 -12 30 -21 10 -3 -7 -3 -3 -1 9 3 12 0 25 -6 29 -8 4 -9 3 -5 -4 4 -7
3 -20 -3 -29 -9 -17 -10 -16 -9 2 0 11 0 25 -2 30 -1 6 -2 17 -1 25 2 15 38
-22 81 -81z m-172 0 c-3 -20 -5 -19 -9 9 -3 20 -2 29 4 23 5 -5 7 -19 5 -32z
m226 -75 c3 -8 2 -12 -4 -9 -6 3 -10 10 -10 16 0 14 7 11 14 -7z m90 -130 c3
-8 2 -12 -4 -9 -6 3 -10 10 -10 16 0 14 7 11 14 -7z m75 -108 c-3 -3 -11 5
-18 17 -13 21 -12 21 5 5 10 -10 16 -20 13 -22z m84 -126 c3 -11 2 -18 -3 -15
-4 3 -10 14 -13 25 -3 11 -2 18 3 15 4 -3 10 -14 13 -25z m327 -651 c0 -6 -4
-7 -10 -4 -5 3 -10 11 -10 16 0 6 5 7 10 4 6 -3 10 -11 10 -16z m57 -181 c-3
-8 -6 -5 -6 6 -1 11 2 17 5 13 3 -3 4 -12 1 -19z m90 -570 c-2 -13 -4 -5 -4
17 -1 22 1 32 4 23 2 -10 2 -28 0 -40z m3 -53 c0 -14 -4 -25 -9 -25 -4 0 -6
11 -3 25 2 14 6 25 8 25 2 0 4 -11 4 -25z M3770 6380 c0 -5 5 -10 10 -10 6 0
10 5 10 10 0 6 -4 10 -10 10 -5 0 -10 -4 -10 -10z M3600 6529 c0 -5 5 -7 10
-4 6 3 10 8 10 11 0 2 -4 4 -10 4 -5 0 -10 -5 -10 -11z M3645 6509 c-4 -6 -5
-12 -2 -15 2 -3 7 2 10 11 7 17 1 20 -8 4z M3510 5512 c-93 -59 -260 -202
-400 -342 -239 -239 -404 -466 -543 -745 l-25 -50 -7 58 c-4 32 -5 118 -2 190
3 89 2 109 -3 62 -13 -124 -10 -229 10 -371 41 -273 76 -391 223 -734 57 -135
116 -274 130 -310 14 -36 46 -119 72 -185 67 -171 128 -356 206 -620 69 -234
160 -683 136 -668 -7 4 -8 -1 -2 -13 72 -174 176 -634 225 -994 10 -74 22
-146 26 -160 5 -20 4 -23 -6 -13 -8 7 -24 50 -37 95 -55 191 -222 566 -354
795 -218 381 -532 775 -822 1031 -214 189 -457 364 -665 477 -239 131 -564
265 -685 281 -56 8 -59 6 -116 -106 -89 -173 -129 -350 -138 -606 -11 -312 50
-659 153 -867 18 -37 29 -67 25 -67 -11 0 -127 124 -197 210 -82 102 -182 249
-234 343 -23 43 -44 76 -46 74 -6 -6 84 -163 145 -252 85 -125 205 -270 293
-356 61 -59 71 -55 82 36 8 72 50 204 91 287 89 180 261 318 443 357 98 20
266 14 372 -14 104 -28 233 -81 323 -132 33 -18 61 -33 64 -33 9 0 228 -151
293 -201 71 -56 269 -244 340 -324 224 -250 421 -551 579 -885 41 -85 80 -171
86 -190 l13 -34 16 38 c18 44 20 57 5 36 -14 -20 -11 -8 40 160 55 180 134
371 232 558 257 491 571 901 936 1222 397 349 798 580 1271 731 56 18 102 37
102 41 0 4 -22 33 -49 66 -164 197 -481 377 -771 437 -47 10 -132 21 -190 24
l-105 6 60 38 c132 84 291 144 484 183 114 24 143 26 306 22 99 -2 162 0 140
4 -70 12 -316 9 -402 -6 -169 -30 -309 -75 -441 -142 -58 -30 -108 -57 -111
-62 -3 -4 -28 -23 -56 -41 -27 -19 -52 -37 -55 -40 -3 -4 -27 -24 -54 -46 -83
-66 -174 -164 -261 -280 -78 -104 -215 -302 -215 -311 0 -2 -15 -25 -34 -51
-45 -65 -229 -408 -303 -568 -91 -195 -190 -441 -249 -619 -30 -91 -54 -150
-57 -140 -3 11 -5 -2 -6 -27 0 -25 -15 -95 -32 -155 -78 -274 -139 -572 -169
-819 -6 -49 -14 -106 -18 -125 -4 -19 -9 1069 -12 2418 l-5 2453 -45 -29z
M2562 4933 c-7 -32 -14 -85 -16 -118 l-5 -60 9 55 c5 30 15 81 21 113 7 32 10
60 7 63 -3 2 -10 -21 -16 -53z M4562 4220 c0 -14 2 -19 5 -12 2 6 2 18 0 25
-3 6 -5 1 -5 -13z M4551 4174 c0 -11 3 -14 6 -6 3 7 2 16 -1 19 -3 4 -6 -2 -5
-13z M1090 4103 c-361 -58 -606 -219 -753 -493 -44 -82 -98 -235 -96 -276 0
-10 11 17 24 61 46 156 83 233 162 337 122 160 302 272 542 335 127 34 370 43
506 19 50 -8 106 -18 125 -21 35 -5 35 -5 5 5 -70 24 -217 40 -350 39 -77 -1
-151 -4 -165 -6z M4531 4084 c0 -11 3 -14 6 -6 3 7 2 16 -1 19 -3 4 -6 -2 -5
-13z M6149 4070 c41 -11 76 -18 79 -16 5 6 -64 25 -113 31 -23 3 -9 -3 34 -15z
M1745 4020 c148 -53 251 -107 365 -190 52 -39 77 -54 55 -34 -22 20 -39 40
-37 46 1 5 -2 7 -7 3 -11 -6 -97 53 -94 65 1 4 -3 7 -10 6 -7 0 -55 20 -107
46 -89 43 -238 99 -264 97 -6 0 39 -18 99 -39z M6260 4038 c172 -74 248 -119
338 -203 163 -151 266 -380 292 -651 15 -158 -12 -377 -70 -563 -10 -36 -18
-67 -15 -69 5 -6 52 150 69 235 36 169 40 394 10 533 -31 139 -120 346 -180
415 -14 17 -36 43 -50 58 -14 15 -22 33 -18 39 4 6 3 8 -3 5 -6 -4 -41 19 -79
49 -38 30 -82 62 -99 71 -16 9 -33 21 -37 27 -4 6 -8 8 -8 4 0 -4 -32 8 -72
27 -40 19 -79 35 -88 34 -8 0 -4 -5 10 -11z M4511 4014 c0 -11 3 -14 6 -6 3 7
2 16 -1 19 -3 4 -6 -2 -5 -13z M2284 3683 c68 -70 96 -90 96 -67 0 3 -4 3 -9
0 -10 -7 -43 28 -36 37 3 4 2 5 -2 2 -4 -3 -34 20 -67 52 -36 35 -29 25 18
-24z M4416 3745 c-9 -26 -7 -32 5 -12 6 10 9 21 6 23 -2 3 -7 -2 -11 -11z
M4346 3585 c-9 -26 -7 -32 5 -12 6 10 9 21 6 23 -2 3 -7 -2 -11 -11z M2422
3525 c50 -63 82 -93 38 -37 -11 15 -31 42 -43 59 -12 18 -28 35 -35 37 -6 3
11 -24 40 -59z M4316 3515 c-9 -26 -7 -32 5 -12 6 10 9 21 6 23 -2 3 -7 -2
-11 -11z M4296 3465 c-9 -26 -7 -32 5 -12 6 10 9 21 6 23 -2 3 -7 -2 -11 -11z
M2517 3396 c63 -87 71 -87 12 0 -16 23 -26 44 -24 46 3 3 -2 5 -10 5 -10 0 -3
-16 22 -51z M4246 3345 c-9 -26 -7 -32 5 -12 6 10 9 21 6 23 -2 3 -7 -2 -11
-11z M2627 3233 c58 -91 85 -126 63 -83 -18 34 -110 170 -115 170 -3 0 21 -39
52 -87z M227 3275 c-4 -22 -6 -58 -6 -80 1 -29 4 -21 10 29 10 76 6 116 -4 51z
M4206 3245 c-9 -26 -7 -32 5 -12 6 10 9 21 6 23 -2 3 -7 -2 -11 -11z M4166
3145 c-9 -26 -7 -32 5 -12 6 10 9 21 6 23 -2 3 -7 -2 -11 -11z M213 3075 c0
-44 2 -61 4 -37 2 23 2 59 0 80 -2 20 -4 1 -4 -43z M2710 3100 c6 -11 13 -20
16 -20 2 0 0 9 -6 20 -6 11 -13 20 -16 20 -2 0 0 -9 6 -20z M4136 3065 c-9
-26 -7 -32 5 -12 6 10 9 21 6 23 -2 3 -7 -2 -11 -11z M2765 3010 c9 -16 18
-30 21 -30 2 0 -2 14 -11 30 -9 17 -18 30 -21 30 -2 0 2 -13 11 -30z M223
2950 c0 -25 2 -35 4 -22 2 12 2 32 0 45 -2 12 -4 2 -4 -23z M2810 2930 c11
-22 23 -40 25 -40 3 0 -4 18 -15 40 -11 22 -23 40 -25 40 -3 0 4 -18 15 -40z
M232 2865 c0 -16 2 -22 5 -12 2 9 2 23 0 30 -3 6 -5 -1 -5 -18z M4056 2845
c-9 -26 -7 -32 5 -12 6 10 9 21 6 23 -2 3 -7 -2 -11 -11z M2901 2760 c22 -44
42 -80 45 -80 5 0 -7 26 -44 98 -18 34 -35 62 -37 62 -3 0 13 -36 36 -80z
M241 2820 c-2 -38 66 -277 75 -267 3 2 -1 17 -7 33 -6 16 -24 79 -39 139 -16
61 -29 103 -29 95z M4031 2773 c-1 -6 -4 -20 -7 -30 -5 -17 -5 -17 6 0 6 10 9
23 6 30 -3 9 -5 9 -5 0z M4011 2704 c0 -11 3 -14 6 -6 3 7 2 16 -1 19 -3 4 -6
-2 -5 -13z M2960 2644 c1 -12 79 -161 80 -152 0 8 -67 148 -75 156 -3 3 -5 1
-5 -4z M3961 2544 c0 -11 3 -14 6 -6 3 7 2 16 -1 19 -3 4 -6 -2 -5 -13z M320
2533 c0 -16 31 -95 36 -90 2 2 -5 25 -16 53 -10 27 -19 43 -20 37z M6772 2488
c-33 -85 -36 -95 -23 -78 14 20 53 122 48 127 -2 2 -13 -20 -25 -49z M3041
2479 c-1 -3 17 -44 38 -90 22 -46 40 -79 40 -74 0 11 -77 173 -78 164z M3931
2434 c0 -11 3 -14 6 -6 3 7 2 16 -1 19 -3 4 -6 -2 -5 -13z M360 2425 c0 -5 5
-17 10 -25 5 -8 10 -10 10 -5 0 6 -5 17 -10 25 -5 8 -10 11 -10 5z M6706 2332
c-44 -89 -133 -238 -200 -332 -121 -170 -304 -370 -318 -347 -5 8 -8 7 -8 -5
0 -28 12 -22 68 33 31 30 56 48 63 43 8 -4 9 -3 5 4 -9 15 124 173 137 165 6
-3 7 -1 3 5 -4 6 13 37 37 69 87 115 258 406 245 418 -2 3 -17 -21 -32 -53z
M3911 2364 c0 -11 3 -14 6 -6 3 7 2 16 -1 19 -3 4 -6 -2 -5 -13z M5443 2363
c26 -2 67 -2 90 0 23 2 2 3 -48 3 -49 0 -68 -1 -42 -3z M390 2354 c0 -6 7 -19
16 -30 14 -18 14 -18 3 6 -14 31 -19 36 -19 24z M5348 2353 c6 -2 18 -2 25 0
6 3 1 5 -13 5 -14 0 -19 -2 -12 -5z M5615 2350 c11 -5 29 -8 40 -8 16 0 15 2
-5 8 -34 11 -60 11 -35 0z M5298 2343 c7 -3 16 -2 19 1 4 3 -2 6 -13 5 -11 0
-14 -3 -6 -6z M3901 2324 c0 -11 3 -14 6 -6 3 7 2 16 -1 19 -3 4 -6 -2 -5 -13z
M5225 2330 c-13 -5 -14 -9 -5 -9 8 0 24 4 35 9 13 5 14 9 5 9 -8 0 -24 -4 -35
-9z M5700 2326 c14 -8 27 -12 29 -10 6 6 -1 11 -29 18 l-25 7 25 -15z M5741
2316 c10 -9 89 -46 89 -41 0 5 -75 45 -86 45 -4 0 -5 -2 -3 -4z M3120 2295 c0
-5 5 -17 10 -25 5 -8 10 -10 10 -5 0 6 -5 17 -10 25 -5 8 -10 11 -10 5z M3891
2284 c0 -11 3 -14 6 -6 3 7 2 16 -1 19 -3 4 -6 -2 -5 -13z M5100 2285 c-14 -8
-20 -14 -15 -14 6 0 21 6 35 14 14 8 21 14 15 14 -5 0 -21 -6 -35 -14z M5040
2260 c-8 -5 -10 -10 -5 -10 6 0 17 5 25 10 8 5 11 10 5 10 -5 0 -17 -5 -25
-10z M5845 2264 c6 -6 44 -41 85 -79 71 -66 72 -67 20 -11 -30 31 -68 67 -85
78 -16 12 -25 17 -20 12z M3881 2244 c0 -11 3 -14 6 -6 3 7 2 16 -1 19 -3 4
-6 -2 -5 -13z M3140 2245 c0 -5 5 -17 10 -25 5 -8 10 -10 10 -5 0 6 -5 17 -10
25 -5 8 -10 11 -10 5z M3872 2200 c0 -14 2 -19 5 -12 2 6 2 18 0 25 -3 6 -5 1
-5 -13z M4877 2179 c-22 -11 -37 -23 -34 -25 5 -5 77 35 77 42 0 6 -1 5 -43
-17z M3170 2169 c0 -4 7 -22 15 -40 8 -19 14 -27 14 -19 0 14 -28 72 -29 59z
M3861 2154 c0 -11 3 -14 6 -6 3 7 2 16 -1 19 -3 4 -6 -2 -5 -13z M3851 2114
c0 -11 3 -14 6 -6 3 7 2 16 -1 19 -3 4 -6 -2 -5 -13z M4762 2109 c-18 -12 -31
-24 -28 -26 5 -5 66 35 66 43 0 6 -3 5 -38 -17z M3842 2070 c0 -14 2 -19 5
-12 2 6 2 18 0 25 -3 6 -5 1 -5 -13z M4685 2054 l-30 -26 33 22 c17 12 32 23
32 26 0 7 -4 5 -35 -22z M6016 2072 c-3 -5 1 -9 9 -9 8 0 12 4 9 9 -3 4 -7 8
-9 8 -2 0 -6 -4 -9 -8z M3210 2059 c0 -4 7 -22 15 -40 8 -19 14 -27 14 -19 0
14 -28 72 -29 59z M6055 2020 c9 -16 18 -30 21 -30 2 0 -2 14 -11 30 -9 17
-18 30 -21 30 -2 0 2 -13 11 -30z M3832 2020 c0 -14 2 -19 5 -12 2 6 2 18 0
25 -3 6 -5 1 -5 -13z M4629 2013 c-13 -16 -12 -17 4 -4 9 7 17 15 17 17 0 8
-8 3 -21 -13z M4565 1964 l-40 -36 43 32 c36 27 49 40 40 40 -2 0 -21 -16 -43
-36z M3822 1970 c0 -14 2 -19 5 -12 2 6 2 18 0 25 -3 6 -5 1 -5 -13z M6080
1975 c0 -5 5 -17 10 -25 5 -8 10 -10 10 -5 0 6 -5 17 -10 25 -5 8 -10 11 -10
5z M3256 1928 c19 -61 43 -122 43 -112 1 14 -40 134 -46 134 -2 0 -1 -10 3
-22z M3811 1914 c0 -11 3 -14 6 -6 3 7 2 16 -1 19 -3 4 -6 -2 -5 -13z M4470
1885 c-24 -25 -42 -45 -39 -45 3 0 25 20 49 45 24 25 42 45 39 45 -3 0 -25
-20 -49 -45z M3802 1855 c0 -16 2 -22 5 -12 2 9 2 23 0 30 -3 6 -5 -1 -5 -18z
M6122 1875 c0 -5 6 -26 13 -45 7 -19 14 -28 14 -20 0 8 -6 29 -14 45 -7 17
-13 26 -13 20z M4345 1768 c-39 -40 -90 -96 -115 -124 -25 -27 -1 -5 53 50
128 132 141 146 136 146 -2 0 -36 -33 -74 -72z M6161 1734 c0 -11 3 -14 6 -6
3 7 2 16 -1 19 -3 4 -6 -2 -5 -13z M6171 1684 c0 -11 3 -14 6 -6 3 7 2 16 -1
19 -3 4 -6 -2 -5 -13z M4154 1558 l-19 -23 23 19 c12 11 22 21 22 23 0 8 -8 2
-26 -19z M4090 1480 c-17 -22 -29 -40 -27 -40 3 0 20 18 37 40 17 22 29 40 27
40 -3 0 -20 -18 -37 -40z M4024 1393 c-15 -21 -39 -54 -52 -73 l-24 -35 26 30
c34 39 89 115 83 115 -3 0 -17 -17 -33 -37z M3914 1238 c-4 -7 -14 -24 -22
-38 -14 -24 -13 -24 3 -5 20 24 37 55 31 55 -3 0 -8 -6 -12 -12z M3858 1148
c-8 -13 -24 -41 -37 -63 -26 -47 3 -10 37 47 24 40 24 54 0 16z M3780 1020
c-6 -11 -8 -20 -6 -20 3 0 10 9 16 20 6 11 8 20 6 20 -3 0 -10 -9 -16 -20z
M3720 910 c-17 -33 -28 -60 -25 -60 2 0 18 27 35 60 17 33 28 60 25 60 -2 0
-18 -27 -35 -60z M3667 805 c-9 -19 -15 -35 -12 -35 7 0 37 61 33 66 -3 2 -12
-12 -21 -31z M3631 734 c-16 -37 -9 -39 11 -3 9 16 14 29 9 29 -4 0 -13 -12
-20 -26z M3596 655 c-9 -26 -7 -32 5 -12 6 10 9 21 6 23 -2 3 -7 -2 -11 -11z" fill="#ffffff"/>
<path d="M3518 6623 c-62 -66 -230 -274 -323 -400 -304 -412 -545 -911 -620
-1278 -34 -172 -53 -408 -40 -511 l7 -59 25 50 c139 279 304 506 543 745 140
140 307 283 400 342 l45 29 5 -223 6 -223 2 218 2 219 53 -38 c170 -123 415
-353 559 -524 153 -182 321 -438 364 -555 20 -55 23 -58 29 -33 4 14 5 35 2
45 -3 11 -5 7 -6 -12 -2 -30 -2 -30 -18 10 -9 22 -16 53 -16 68 0 17 -3 24 -7
17 -5 -9 -9 -9 -14 -1 -4 6 -4 11 1 11 4 0 3 4 -3 8 -13 9 -74 109 -74 122 0
6 -4 10 -10 10 -5 0 -9 10 -7 22 1 13 -4 23 -10 23 -7 0 -14 5 -15 10 -1 6
-14 23 -30 39 -16 16 -27 35 -24 43 3 8 2 11 -4 8 -5 -3 -17 7 -27 22 -10 15
-20 30 -23 33 -37 34 -100 122 -94 131 4 7 3 9 -3 6 -12 -8 -149 142 -145 157
2 6 0 8 -4 4 -4 -4 -47 31 -96 78 -93 88 -276 240 -341 284 l-37 25 6 360 c4
198 8 387 9 420 2 33 3 72 4 88 1 20 6 27 21 27 11 0 20 7 20 16 0 8 4 13 9
10 5 -4 11 0 14 6 3 10 10 8 26 -6 11 -11 24 -16 28 -12 4 4 1 12 -7 17 -13 9
-13 10 0 6 14 -3 20 -25 21 -72 0 -18 1 -19 10 -2 6 9 7 22 3 29 -4 7 -3 8 5
4 6 -4 9 -17 6 -29 -2 -12 -2 -16 1 -9 9 20 24 14 21 -10 -1 -17 3 -23 18 -23
14 0 19 -6 17 -20 -2 -16 -1 -17 7 -5 7 10 6 19 -2 30 -31 40 -95 119 -124
150 -62 69 -85 95 -100 118 -8 12 -18 22 -22 22 -4 0 -23 -17 -43 -37z m102
-87 c0 -3 -4 -8 -10 -11 -5 -3 -10 -1 -10 4 0 6 5 11 10 11 6 0 10 -2 10 -4z
m33 -31 c-3 -9 -8 -14 -10 -11 -3 3 -2 9 2 15 9 16 15 13 8 -4z m137 -125 c0
-5 -4 -10 -10 -10 -5 0 -10 5 -10 10 0 6 5 10 10 10 6 0 10 -4 10 -10z M3619
6388 c4 -28 6 -29 9 -9 2 13 0 27 -5 32 -6 6 -7 -3 -4 -23z M3840 6311 c0 -6
4 -13 10 -16 6 -3 7 1 4 9 -7 18 -14 21 -14 7z M3930 6181 c0 -6 4 -13 10 -16
6 -3 7 1 4 9 -7 18 -14 21 -14 7z M4001 6083 c7 -12 15 -20 18 -17 3 2 -3 12
-13 22 -17 16 -18 16 -5 -5z M4087 5950 c3 -11 9 -22 13 -25 5 -3 6 4 3 15 -3
11 -9 22 -13 25 -5 3 -6 -4 -3 -15z M4410 5301 c0 -5 5 -13 10 -16 6 -3 10 -2
10 4 0 5 -4 13 -10 16 -5 3 -10 2 -10 -4z M4481 5114 c0 -11 3 -14 6 -6 3 7 2
16 -1 19 -3 4 -6 -2 -5 -13z M3564 4890 c0 -107 2 -151 3 -97 2 53 2 141 0
195 -1 53 -3 9 -3 -98z M4573 4555 c0 -22 2 -30 4 -17 2 12 2 30 0 40 -3 9 -5
-1 -4 -23z M4568 4485 c-3 -14 -1 -25 3 -25 5 0 9 11 9 25 0 14 -2 25 -4 25
-2 0 -6 -11 -8 -25z M4561 4254 c0 -11 3 -14 6 -6 3 7 2 16 -1 19 -3 4 -6 -2
-5 -13z M1028 4080 c-318 -67 -538 -217 -676 -461 -48 -85 -101 -256 -118
-382 -50 -363 81 -810 354 -1207 104 -152 298 -380 323 -380 4 0 -7 30 -25 68
-103 207 -164 554 -153 866 9 256 49 433 138 606 49 95 61 110 90 111 20 0 21
1 6 8 -17 6 -15 12 20 56 207 261 666 484 996 485 55 0 78 3 75 12 -12 35
-278 156 -425 193 -195 49 -443 59 -605 25z M5579 4075 c-185 -39 -345 -101
-474 -182 l-60 -38 105 -6 c58 -3 143 -14 190 -24 292 -61 613 -244 771 -439
27 -34 54 -67 60 -74 25 -30 100 -183 129 -262 138 -372 112 -936 -61 -1319
-16 -35 -29 -66 -29 -69 0 -11 91 82 159 163 361 425 560 944 521 1359 -45
469 -300 772 -745 886 -74 19 -123 24 -270 27 -161 2 -192 0 -296 -22z M2215
3740 c10 -11 20 -20 23 -20 3 0 -3 9 -13 20 -10 11 -20 20 -23 20 -3 0 3 -9
13 -20z M2345 3610 c10 -11 20 -20 23 -20 3 0 -3 9 -13 20 -10 11 -20 20 -23
20 -3 0 3 -9 13 -20z M1310 3190 c8 -5 20 -10 25 -10 6 0 3 5 -5 10 -8 5 -19
10 -25 10 -5 0 -3 -5 5 -10z M1400 3150 c8 -5 20 -10 25 -10 6 0 3 5 -5 10 -8
5 -19 10 -25 10 -5 0 -3 -5 5 -10z M5660 3130 c-8 -5 -10 -10 -5 -10 6 0 17 5
25 10 8 5 11 10 5 10 -5 0 -17 -5 -25 -10z M1500 3106 c0 -2 7 -7 16 -10 8 -3
12 -2 9 4 -6 10 -25 14 -25 6z M5454 3024 c-18 -14 -18 -15 4 -4 12 6 22 13
22 15 0 8 -5 6 -26 -11z M1660 3026 c0 -3 9 -10 20 -16 11 -6 20 -8 20 -6 0 3
-9 10 -20 16 -11 6 -20 8 -20 6z M5384 2984 c-18 -14 -18 -15 4 -4 12 6 22 13
22 15 0 8 -5 6 -26 -11z M1750 2976 c0 -3 9 -10 20 -16 11 -6 20 -8 20 -6 0 3
-9 10 -20 16 -11 6 -20 8 -20 6z M5334 2954 c-18 -14 -18 -15 4 -4 12 6 22 13
22 15 0 8 -5 6 -26 -11z M1830 2926 c0 -3 9 -10 20 -16 11 -6 20 -8 20 -6 0 3
-9 10 -20 16 -11 6 -20 8 -20 6z M1880 2896 c0 -3 20 -19 45 -36 25 -17 45
-29 45 -26 0 3 -20 19 -45 36 -25 17 -45 29 -45 26z M1980 2826 c0 -2 8 -10
18 -17 15 -13 16 -12 3 4 -13 16 -21 21 -21 13z M2020 2797 c0 -3 17 -17 37
-33 20 -15 33 -23 29 -16 -8 13 -66 56 -66 49z M5049 2763 c-13 -16 -12 -17 4
-4 16 13 21 21 13 21 -2 0 -10 -8 -17 -17z M2100 2737 c0 -2 28 -25 63 -51 34
-26 46 -33 27 -16 -40 36 -90 73 -90 67z M4964 2698 l-19 -23 23 19 c12 11 22
21 22 23 0 8 -8 2 -26 -19z M2940 2671 c0 -6 4 -13 10 -16 6 -3 7 1 4 9 -7 18
-14 21 -14 7z M4914 2658 l-19 -23 23 19 c21 18 27 26 19 26 -2 0 -12 -10 -23
-22z M2230 2638 c0 -3 35 -36 78 -73 42 -38 68 -59 57 -46 -23 27 -135 125
-135 119z M4864 2618 l-19 -23 23 19 c21 18 27 26 19 26 -2 0 -12 -10 -23 -22z
M4784 2548 l-29 -33 33 29 c17 17 32 31 32 33 0 8 -8 1 -36 -29z M2410 2475
c13 -14 26 -25 28 -25 3 0 -5 11 -18 25 -13 14 -26 25 -28 25 -3 0 5 -11 18
-25z M4620 2393 l-105 -108 108 105 c59 57 107 106 107 107 0 8 -13 -5 -110
-104z M2480 2405 c19 -19 36 -35 39 -35 3 0 -10 16 -29 35 -19 19 -36 35 -39
35 -3 0 10 -16 29 -35z M5378 2363 c7 -3 16 -2 19 1 4 3 -2 6 -13 5 -11 0 -14
-3 -6 -6z M2600 2278 c24 -27 45 -48 47 -48 8 0 0 9 -44 50 l-48 45 45 -47z
M4469 2233 l-34 -38 38 34 c20 19 37 36 37 38 0 8 -8 0 -41 -34z M5930 2198
c41 -45 50 -53 50 -45 0 2 -21 23 -47 47 l-48 45 45 -47z M2650 2217 c0 -2 15
-16 33 -33 l32 -29 -29 33 c-28 30 -36 37 -36 29z M4399 2153 l-24 -28 28 24
c25 23 32 31 24 31 -2 0 -14 -12 -28 -27z M2730 2125 c13 -14 26 -25 28 -25 3
0 -5 11 -18 25 -13 14 -26 25 -28 25 -3 0 5 -11 18 -25z M4344 2088 l-19 -23
23 19 c12 11 22 21 22 23 0 8 -8 2 -26 -19z M2805 2031 c27 -34 54 -65 59 -69
6 -3 -12 22 -39 57 -27 34 -54 65 -59 69 -6 3 12 -22 39 -57z M4304 2038 l-19
-23 23 19 c12 11 22 21 22 23 0 8 -8 2 -26 -19z M4269 1993 c-29 -35 -41 -53
-36 -53 2 0 17 16 31 35 28 36 31 49 5 18z M2870 1946 c0 -2 8 -10 18 -17 15
-13 16 -12 3 4 -13 16 -21 21 -21 13z M4209 1913 c-13 -16 -12 -17 4 -4 9 7
17 15 17 17 0 8 -8 3 -21 -13z M4444 1868 l-29 -33 33 29 c30 28 37 36 29 36
-2 0 -16 -15 -33 -32z M4172 1863 c-26 -38 -34 -53 -29 -53 2 0 16 18 31 40
29 45 28 56 -2 13z M2920 1876 c0 -2 8 -10 18 -17 15 -13 16 -12 3 4 -13 16
-21 21 -21 13z M3791 1824 c0 -11 3 -14 6 -6 3 7 2 16 -1 19 -3 4 -6 -2 -5
-13z M2995 1773 c15 -24 30 -43 32 -43 7 0 -31 61 -46 73 -8 7 -2 -7 14 -30z
M3782 1735 c0 -16 2 -22 5 -12 2 9 2 23 0 30 -3 6 -5 -1 -5 -18z M3060 1670
c6 -11 13 -20 16 -20 2 0 0 9 -6 20 -6 11 -13 20 -16 20 -2 0 0 -9 6 -20z
M4244 1668 l-19 -23 23 19 c12 11 22 21 22 23 0 8 -8 2 -26 -19z M4040 1660
c-6 -11 -8 -20 -6 -20 3 0 10 9 16 20 6 11 8 20 6 20 -3 0 -10 -9 -16 -20z
M3341 1654 c0 -11 3 -14 6 -6 3 7 2 16 -1 19 -3 4 -6 -2 -5 -13z M3110 1590
c6 -11 13 -20 16 -20 2 0 0 9 -6 20 -6 11 -13 20 -16 20 -2 0 0 -9 6 -20z
M3361 1584 c0 -11 3 -14 6 -6 3 7 2 16 -1 19 -3 4 -6 -2 -5 -13z M3990 1580
c-6 -11 -8 -20 -6 -20 3 0 10 9 16 20 6 11 8 20 6 20 -3 0 -10 -9 -16 -20z
M3741 1574 c0 -11 3 -14 6 -6 3 7 2 16 -1 19 -3 4 -6 -2 -5 -13z M3140 1540
c6 -11 13 -20 16 -20 2 0 0 9 -6 20 -6 11 -13 20 -16 20 -2 0 0 -9 6 -20z
M3371 1544 c0 -11 3 -14 6 -6 3 7 2 16 -1 19 -3 4 -6 -2 -5 -13z M4119 1523
c-13 -16 -12 -17 4 -4 16 13 21 21 13 21 -2 0 -10 -8 -17 -17z M3180 1470 c11
-22 23 -40 25 -40 3 0 -4 18 -15 40 -11 22 -23 40 -25 40 -3 0 4 -18 15 -40z
M3930 1480 c-6 -11 -8 -20 -6 -20 3 0 10 9 16 20 6 11 8 20 6 20 -3 0 -10 -9
-16 -20z M3711 1464 c0 -11 3 -14 6 -6 3 7 2 16 -1 19 -3 4 -6 -2 -5 -13z
M3401 1434 c0 -11 3 -14 6 -6 3 7 2 16 -1 19 -3 4 -6 -2 -5 -13z M3701 1424
c0 -11 3 -14 6 -6 3 7 2 16 -1 19 -3 4 -6 -2 -5 -13z M3411 1394 c0 -11 3 -14
6 -6 3 7 2 16 -1 19 -3 4 -6 -2 -5 -13z M3691 1384 c0 -11 3 -14 6 -6 3 7 2
16 -1 19 -3 4 -6 -2 -5 -13z M3236 1367 c3 -10 9 -15 12 -12 3 3 0 11 -7 18
-10 9 -11 8 -5 -6z M3421 1354 c0 -11 3 -14 6 -6 3 7 2 16 -1 19 -3 4 -6 -2
-5 -13z M3840 1310 c-17 -33 -28 -60 -25 -60 2 0 18 27 35 60 17 33 28 60 25
60 -2 0 -18 -27 -35 -60z M3431 1314 c0 -11 3 -14 6 -6 3 7 2 16 -1 19 -3 4
-6 -2 -5 -13z M3266 1307 c3 -10 9 -15 12 -12 3 3 0 11 -7 18 -10 9 -11 8 -5
-6z M3671 1294 c0 -11 3 -14 6 -6 3 7 2 16 -1 19 -3 4 -6 -2 -5 -13z M3441
1274 c0 -11 3 -14 6 -6 3 7 2 16 -1 19 -3 4 -6 -2 -5 -13z M3661 1254 c0 -11
3 -14 6 -6 3 7 2 16 -1 19 -3 4 -6 -2 -5 -13z M3306 1227 c3 -10 9 -15 12 -12
3 3 0 11 -7 18 -10 9 -11 8 -5 -6z M3451 1224 c0 -11 3 -14 6 -6 3 7 2 16 -1
19 -3 4 -6 -2 -5 -13z M3777 1184 c-37 -74 -33 -83 4 -10 17 32 29 60 27 62
-2 2 -16 -21 -31 -52z M3651 1194 c0 -11 3 -14 6 -6 3 7 2 16 -1 19 -3 4 -6
-2 -5 -13z M3461 1174 c0 -11 3 -14 6 -6 3 7 2 16 -1 19 -3 4 -6 -2 -5 -13z
M3350 1135 c0 -5 5 -17 10 -25 5 -8 10 -10 10 -5 0 6 -5 17 -10 25 -5 8 -10
11 -10 5z M3472 1120 c0 -14 2 -19 5 -12 2 6 2 18 0 25 -3 6 -5 1 -5 -13z
M3631 1104 c0 -11 3 -14 6 -6 3 7 2 16 -1 19 -3 4 -6 -2 -5 -13z M3481 1064
c0 -11 3 -14 6 -6 3 7 2 16 -1 19 -3 4 -6 -2 -5 -13z M3562 1050 c0 -19 2 -27
5 -17 2 9 2 25 0 35 -3 9 -5 1 -5 -18z M3621 1054 c0 -11 3 -14 6 -6 3 7 2 16
-1 19 -3 4 -6 -2 -5 -13z M3701 1009 c-6 -18 -9 -34 -7 -36 2 -2 9 10 15 28 6
18 9 34 7 36 -2 2 -9 -10 -15 -28z M3400 1015 c0 -5 5 -17 10 -25 5 -8 10 -10
10 -5 0 6 -5 17 -10 25 -5 8 -10 11 -10 5z M3492 1000 c0 -14 2 -19 5 -12 2 6
2 18 0 25 -3 6 -5 1 -5 -13z M3612 990 c0 -14 2 -19 5 -12 2 6 2 18 0 25 -3 6
-5 1 -5 -13z M3502 940 c0 -14 2 -19 5 -12 2 6 2 18 0 25 -3 6 -5 1 -5 -13z
M3561 944 c0 -11 3 -14 6 -6 3 7 2 16 -1 19 -3 4 -6 -2 -5 -13z M3602 930 c0
-14 2 -19 5 -12 2 6 2 18 0 25 -3 6 -5 1 -5 -13z M3666 925 c-9 -26 -7 -32 5
-12 6 10 9 21 6 23 -2 3 -7 -2 -11 -11z M3440 915 c0 -5 5 -17 10 -25 5 -8 10
-10 10 -5 0 6 -5 17 -10 25 -5 8 -10 11 -10 5z M3563 780 c0 -80 3 -134 7
-120 3 14 3 79 0 145 l-7 120 0 -145z M3512 880 c0 -14 2 -19 5 -12 2 6 2 18
0 25 -3 6 -5 1 -5 -13z M3592 865 c0 -16 2 -22 5 -12 2 9 2 23 0 30 -3 6 -5
-1 -5 -18z M3641 844 c0 -11 3 -14 6 -6 3 7 2 16 -1 19 -3 4 -6 -2 -5 -13z
M3522 805 c0 -16 2 -22 5 -12 2 9 2 23 0 30 -3 6 -5 -1 -5 -18z M3582 775 c0
-16 2 -22 5 -12 2 9 2 23 0 30 -3 6 -5 -1 -5 -18z M3532 725 c0 -16 2 -22 5
-12 2 9 2 23 0 30 -3 6 -5 -1 -5 -18z M3600 711 c0 -6 4 -13 10 -16 6 -3 7 1
4 9 -7 18 -14 21 -14 7z M3530 646 c0 -7 7 -19 15 -26 16 -13 20 -3 9 24 -8
20 -24 21 -24 2z M3570 615 c0 -8 2 -15 4 -15 2 0 6 7 10 15 3 8 1 15 -4 15
-6 0 -10 -7 -10 -15z" fill="#ffffff"/>
<path d="M3568 5308 c-6 -419 -4 -4383 1 -4488 l6 -105 8 75 c23 213 112 643
176 845 11 33 22 87 26 120 18 176 93 510 181 811 76 263 240 701 389 1039
109 249 194 519 211 671 11 100 -29 192 -183 427 -177 270 -495 601 -755 787
l-57 41 -3 -223z M1960 3849 c-320 -20 -672 -178 -896 -403 -50 -50 -96 -101
-102 -112 -11 -21 -8 -23 61 -40 161 -39 386 -132 621 -257 296 -158 592 -380
840 -631 321 -326 586 -694 786 -1094 95 -191 204 -450 240 -575 13 -42 25
-76 26 -74 5 5 -21 203 -52 386 -70 421 -263 1031 -461 1454 -291 624 -644
1139 -899 1312 l-59 40 -105 -6z M6040 3271 c-407 -133 -749 -320 -1106 -605
-368 -292 -679 -659 -967 -1138 -72 -120 -219 -421 -270 -553 -45 -118 -118
-337 -114 -342 1 -1 18 33 36 75 246 560 688 1105 1131 1394 499 326 922 356
1191 87 66 -66 85 -94 137 -200 37 -75 70 -158 82 -209 40 -164 32 -154 64
-85 186 400 218 972 76 1355 -38 104 -120 260 -134 259 -6 0 -63 -18 -126 -38z" fill="#ffffff"/>
</g>
</svg>