<svg xmlns="http://www.w3.org/2000/svg" viewBox="0 0 2733 288">
<g transform="translate(0.000000,288.000000) scale(0.100000,-0.100000)"><path d="M4175 2874 c-641 -69 -1147 -532 -1262 -1154 -25 -136 -25 -420 1
-555 110 -590 543 -1023 1141 -1141 125 -25 423 -25 555 -1 440 82 809 358
1008 753 55 110 97 234 124 366 32 161 32 454 -1 608 -68 321 -216 576 -453
785 -175 153 -436 277 -673 320 -87 16 -359 27 -440 19z m370 -639 c241 -66
413 -241 491 -500 21 -74 27 -117 31 -240 6 -172 -5 -262 -46 -383 -41 -117
-84 -185 -181 -282 -93 -93 -177 -143 -300 -176 -91 -25 -329 -25 -420 0 -246
67 -416 239 -496 501 -26 85 -28 102 -28 285 -1 221 9 276 74 415 102 218 276
352 515 395 73 13 289 4 360 -15z M14802 2868 c-264 -33 -522 -160 -652 -322
-135 -165 -194 -398 -161 -630 23 -164 81 -278 200 -396 129 -129 248 -187
641 -317 140 -46 289 -100 329 -121 99 -48 182 -129 201 -195 24 -88 -3 -199
-62 -254 -75 -70 -246 -102 -362 -69 -88 26 -140 62 -181 126 -26 41 -55 124
-55 157 l0 23 -360 0 -360 0 0 -61 c0 -178 100 -395 243 -526 214 -195 533
-294 897 -279 156 6 283 29 391 69 281 106 475 307 551 573 18 64 22 105 23
214 0 197 -35 309 -137 437 -130 164 -275 244 -728 403 -224 78 -386 151 -439
195 -43 37 -81 117 -81 173 0 81 20 133 71 183 78 79 199 100 334 58 55 -17
78 -31 120 -72 50 -51 59 -70 80 -169 l5 -28 370 0 370 0 0 35 c0 52 -28 179
-56 253 -92 246 -319 431 -619 507 -167 43 -395 56 -573 33z M22889 2866
c-528 -76 -932 -404 -1103 -894 -119 -341 -111 -784 18 -1111 161 -406 500
-700 927 -805 207 -50 464 -59 672 -22 414 75 762 328 936 681 43 87 101 240
101 266 0 5 -163 9 -374 9 l-374 0 -33 -58 c-17 -31 -62 -87 -98 -123 -189
-189 -510 -233 -771 -107 -69 33 -101 57 -170 127 -97 99 -144 178 -186 316
-27 86 -28 99 -28 295 0 196 1 209 28 295 42 138 89 217 186 316 69 70 101 94
170 127 261 126 582 82 771 -107 36 -36 81 -92 98 -123 l33 -58 375 0 375 0
-7 33 c-10 43 -67 191 -98 254 -144 282 -409 512 -719 621 -198 70 -510 99
-729 68z M0 1440 l0 -1410 340 0 340 0 2 866 3 866 571 -863 570 -864 342 -3
342 -2 0 1410 0 1410 -340 0 -340 0 -2 -870 -3 -870 -571 868 -571 867 -341 3
-342 2 0 -1410z M8610 2575 l0 -275 375 0 375 0 0 -1135 0 -1135 340 0 340 0
0 1135 0 1135 370 0 370 0 0 275 0 275 -1085 0 -1085 0 0 -275z M11120 1440
l0 -1410 340 0 340 0 0 580 0 580 535 0 535 0 0 -580 0 -580 340 0 340 0 0
1410 0 1410 -340 0 -340 0 0 -555 0 -555 -535 0 -535 0 0 555 0 555 -340 0
-340 0 0 -1410z M16360 2575 l0 -275 375 0 375 0 0 -1135 0 -1135 340 0 340 0
0 1135 0 1135 370 0 370 0 0 275 0 275 -1085 0 -1085 0 0 -275z M19695 2838
c-3 -7 -228 -632 -501 -1388 -273 -756 -499 -1385 -501 -1397 l-5 -23 354 0
355 0 85 248 85 247 524 3 525 2 84 -247 85 -248 359 -3 359 -2 -6 27 c-4 16
-231 649 -505 1408 l-498 1380 -397 3 c-313 2 -399 0 -402 -10z m574 -1270
l170 -508 -344 0 c-190 0 -345 1 -345 3 0 3 327 984 335 1006 3 8 7 12 9 10 2
-2 81 -232 175 -511z M24870 1440 l0 -1410 340 0 340 0 2 620 3 619 469 -619
469 -620 419 0 419 0 -54 68 c-29 37 -275 350 -547 697 -271 347 -501 639
-511 650 -18 21 -13 28 454 621 259 330 505 641 545 692 l72 92 -402 0 -403 0
-465 -616 -465 -615 -3 616 -2 615 -340 0 -340 0 0 -1410z M6150 1430 l0
-1410 340 0 340 0 0 535 0 535 83 0 82 0 282 -513 c156 -281 290 -522 298
-535 l16 -22 380 0 c208 0 379 3 379 6 0 3 -142 251 -315 550 -173 299 -318
549 -320 556 -4 9 17 21 62 36 206 71 369 215 463 407 70 145 85 210 84 385 0
151 -11 213 -56 330 -116 300 -394 491 -783 539 -56 7 -322 11 -712 11 l-623
0 0 -1410z m1222 829 c107 -23 182 -78 229 -169 21 -40 24 -59 24 -160 0 -99
-3 -122 -23 -165 -42 -92 -119 -150 -230 -174 -31 -6 -155 -11 -297 -11 l-245
0 0 345 0 345 245 0 c142 0 266 -5 297 -11z" fill="#0d2a48"/></g>
</svg>